<svg width="128" height="128" viewBox="0 0 128 128" fill="none" xmlns="http://www.w3.org/2000/svg">
<path d="M120.73 54.3258L105.6 51.8528C104.714 48.8166 103.503 45.8983 101.988 43.136L110.82 30.5485C111.534 29.5322 111.411 28.1472 110.533 27.2666L100.577 17.3159C99.6889 16.4301 98.2912 16.3149 97.2723 17.0496L84.8742 25.961C82.0864 24.4198 79.1424 23.1962 76.0883 22.3078L73.449 7.23969C73.2339 6.01601 72.1715 5.12001 70.9273 5.12001H56.8473C55.5929 5.12001 54.5229 6.02881 54.3206 7.26785L51.8733 22.2541C48.8013 23.1373 45.8521 24.3482 43.0746 25.8688L30.7097 17.0368C29.6883 16.3072 28.2982 16.425 27.4099 17.3082L17.4592 27.2589C16.5811 28.137 16.4582 29.5194 17.1725 30.5357L25.8739 42.985C24.3251 45.7882 23.0912 48.7552 22.1926 51.8426L7.26527 54.3283C6.03135 54.5331 5.12511 55.6032 5.12511 56.8525V70.9325C5.12511 72.1741 6.01599 73.2365 7.23711 73.4541L22.1645 76.1011C23.0579 79.1808 24.2918 82.1479 25.8457 84.9587L17.0368 97.28C16.3097 98.2963 16.4249 99.6915 17.3081 100.58L27.2614 110.541C28.1395 111.419 29.5245 111.542 30.5408 110.828L43.008 102.095C45.8061 103.634 48.7629 104.855 51.8272 105.741L54.3257 120.745C54.528 121.976 55.5955 122.88 56.8473 122.88H70.9273C72.1689 122.88 73.2314 121.989 73.4464 120.768L76.1216 105.69C79.191 104.786 82.1325 103.557 84.9024 102.016L97.4592 110.825C98.4781 111.544 99.8605 111.419 100.741 110.541L110.694 100.58C111.58 99.6915 111.695 98.2912 110.961 97.2723L102.006 84.8384C103.524 82.0736 104.73 79.1501 105.608 76.1139L120.758 73.4541C121.984 73.2391 122.875 72.1741 122.875 70.9325V56.8525C122.877 55.5981 121.969 54.528 120.73 54.3258ZM64 81.92C54.103 81.92 46.08 73.897 46.08 64C46.08 54.1031 54.103 46.08 64 46.08C73.8969 46.08 81.92 54.1031 81.92 64C81.92 73.897 73.8969 81.92 64 81.92Z" fill="white"/>
</svg>
